# xmcd
#
# Track frame offsets: 
#        150
#        14373
#        31771
#        49811
#        62576
#        79183
#        93893
#        111303
#        123291
#        142331
#        156881
#
# Disc length: 2295 seconds
#
# Revision: 4
# Processed by: cddbd v1.5PL3 Copyright (c) Steve Scherf et al.
# Submitted via: ExactAudioCopy v0.95a3
#
DISCID=8d08f50b
DTITLE=Lorrie Morgan - Shakin' Things Up
DYEAR=1997
DGENRE=Country
TTITLE0=Shakin' Things Up
TTITLE1=One Of Those Nights Tonight
TTITLE2=You Can't Take That
TTITLE3=Go Away
TTITLE4=Crazy From The Heat
TTITLE5=I'm Not That Easy To Forget
TTITLE6=I've Enjoyed As Much Of This As I Can Stand
TTITLE7=Finishing Touch
TTITLE8=You'd Think He'd Know Me Better
TTITLE9=Will You Love Me Tomorrow
TTITLE10=In A Perfect World
EXTD=
EXTT0=
EXTT1=
EXTT2=
EXTT3=
EXTT4=
EXTT5=
EXTT6=
EXTT7=
EXTT8=
EXTT9=
EXTT10=
PLAYORDER=
